# xmcd
#
# Track frame offsets: 
#        150
#        16425
#        48720
#
# Disc length: 912 seconds
#
# Revision: 0
# Processed by: cddbd v1.5.2PL0 Copyright (c) Steve Scherf et al.
# Submitted via: ExactAudioCopy v0.95b4
#
DISCID=21038e03
DTITLE=Simply Red - Your Eyes (Promo I)
DYEAR=1999
DGENRE=Blues
TTITLE0=Your Eyes (Mousse T Old School Mix)
TTITLE1=Your Eyes (Jimmy Gomez Funky Mix)
TTITLE2=Your Eyes (One Man Team Mix)
EXTD=
EXTT0=
EXTT1=
EXTT2=
PLAYORDER=
